# WaveFront *.obj file (generated by Cinema 4D)

mtllib ./sky.mtl

v 79.493742 -3.806191 14.201468
v -120.506258 -3.806191 14.201468
v 79.493742 2.486050 14.201468
v -120.506258 2.486050 14.201468
v 79.493742 2.486050 -185.798532
v -120.506258 2.486050 -185.798532
v 79.493742 -3.806191 -185.798532
v -120.506258 -3.806191 -185.798532
# 8 vertices

vn 0.000000 0.000000 1.000000
vn 0.000000 1.000000 0.000000
vn 0.000000 0.000000 -1.000000
vn 0.000000 -1.000000 0.000000
vn -1.000000 0.000000 0.000000
vn 1.000000 0.000000 0.000000
# 6 normals

vt 0.000000 0.000000 0.000000
vt 0.000000 1.000000 0.000000
vt 1.000000 1.000000 0.000000
vt 1.000000 0.000000 0.000000
# 4 texture coordinates

o ???.6
usemtl ??6
f 3/4/1 4/3/1 2/2/1 1/1/1
f 5/4/2 6/3/2 4/2/2 3/1/2
f 7/4/3 8/3/3 6/2/3 5/1/3
f 1/4/4 2/3/4 8/2/4 7/1/4
f 4/4/5 6/3/5 8/2/5 2/1/5
f 5/4/6 3/3/6 1/2/6 7/1/6

v 82.797555 191.515377 14.147252
v -117.202445 191.515377 14.147252
v 82.797555 197.807618 14.147252
v -117.202445 197.807618 14.147252
v 82.797555 197.807618 -185.852748
v -117.202445 197.807618 -185.852748
v 82.797555 191.515377 -185.852748
v -117.202445 191.515377 -185.852748
# 8 vertices

# 0 normal

# 0 texture coordinate

o ???.5
usemtl ??.5
f 11/4/1 12/3/1 10/2/1 9/1/1
f 13/4/2 14/3/2 12/2/2 11/1/2
f 15/4/3 16/3/3 14/2/3 13/1/3
f 9/4/4 10/3/4 16/2/4 15/1/4
f 12/4/5 14/3/5 16/2/5 10/1/5
f 13/4/6 11/3/6 9/2/6 15/1/6

v -111.856309 -0.832142 -186.880877
v -111.856309 199.167858 -186.880877
v -118.148550 -0.832142 -186.880877
v -118.148550 199.167858 -186.880877
v -118.148550 -0.832142 13.119123
v -118.148550 199.167858 13.119123
v -111.856309 -0.832142 13.119123
v -111.856309 199.167858 13.119123
# 8 vertices

# 0 normal

# 0 texture coordinate

o ???.4
usemtl ??.4
f 19/4/3 20/3/3 18/2/3 17/1/3
f 21/4/5 22/3/5 20/2/5 19/1/5
f 23/4/1 24/3/1 22/2/1 21/1/1
f 17/4/6 18/3/6 24/2/6 23/1/6
f 20/4/2 22/3/2 24/2/2 18/1/2
f 21/4/4 19/3/4 17/2/4 23/1/4

v 85.716560 -1.295385 14.554352
v 85.716560 198.704615 14.554352
v 85.716560 -1.295385 8.262111
v 85.716560 198.704615 8.262111
v -114.283440 -1.295385 8.262111
v -114.283440 198.704615 8.262111
v -114.283440 -1.295385 14.554352
v -114.283440 198.704615 14.554352
# 8 vertices

# 0 normal

# 0 texture coordinate

o ???.3
usemtl ??.3
f 27/4/6 28/3/6 26/2/6 25/1/6
f 29/4/3 30/3/3 28/2/3 27/1/3
f 31/4/5 32/3/5 30/2/5 29/1/5
f 25/4/1 26/3/1 32/2/1 31/1/1
f 28/4/2 30/3/2 32/2/2 26/1/2
f 29/4/4 27/3/4 25/2/4 31/1/4

v 74.798985 -0.942645 14.006742
v 74.798985 199.057355 14.006742
v 81.091226 -0.942645 14.006742
v 81.091226 199.057355 14.006742
v 81.091226 -0.942645 -185.993258
v 81.091226 199.057355 -185.993258
v 74.798985 -0.942645 -185.993258
v 74.798985 199.057355 -185.993258
# 8 vertices

# 0 normal

# 0 texture coordinate

o ???.2
usemtl ??.2
f 35/4/1 36/3/1 34/2/1 33/1/1
f 37/4/6 38/3/6 36/2/6 35/1/6
f 39/4/3 40/3/3 38/2/3 37/1/3
f 33/4/5 34/3/5 40/2/5 39/1/5
f 36/4/2 38/3/2 40/2/2 34/1/2
f 37/4/4 35/3/4 33/2/4 39/1/4

v 79.167578 -1.377690 -180.397650
v 79.167578 198.622310 -180.397650
v 79.167578 -1.377690 -186.689891
v 79.167578 198.622310 -186.689891
v -120.832422 -1.377690 -186.689891
v -120.832422 198.622310 -186.689891
v -120.832422 -1.377690 -180.397650
v -120.832422 198.622310 -180.397650
# 8 vertices

# 0 normal

# 0 texture coordinate

o ???.1
usemtl ??.1
f 43/4/6 44/3/6 42/2/6 41/1/6
f 45/4/3 46/3/3 44/2/3 43/1/3
f 47/4/5 48/3/5 46/2/5 45/1/5
f 41/4/1 42/3/1 48/2/1 47/1/1
f 44/4/2 46/3/2 48/2/2 42/1/2
f 45/4/4 43/3/4 41/2/4 47/1/4

